<svg version="1.1" xmlns="http://www.w3.org/2000/svg" xmlns:xlink="http://www.w3.org/1999/xlink" x="0px" y="0px"
	 viewBox="0 0 90 25" xml:space="preserve">
<g>
	<path fill="#ffffff" d="M7.6,3.5C7.4,1.8,6,0.4,3.8,0.4c-1.9,0-3.5,1.1-3.5,2.8c0,1.5,1,2.3,2.9,2.8c1.1,0.3,2.3,0.5,2.3,1.5
		C5.4,8.1,5,8.6,4,8.6c-1,0-2-0.6-2-1.9H0c-0.1,1.9,1.2,3.6,4,3.6c2,0,3.5-1.1,3.5-2.8c0-1.9-1.7-2.6-2.9-2.9
		c-1-0.3-2.3-0.5-2.3-1.4C2.2,2.5,2.8,2,3.7,2c1.7,0,2.2,1.2,2.2,2.6h2.7v3c0,1.8,1.1,2.6,2.9,2.6c0.3,0,0.6,0,0.9-0.1V8.5
		c-0.2,0-0.4,0-0.6,0c-0.9,0-1.3-0.3-1.3-1.1V4.6h1.8V3h-2c0.3-0.3,0.6-0.6,0.6-1.7H9.1C9.1,1.8,8.8,3.2,7.6,3.5 M41.1,5.7H44
		c0-0.9-0.6-1.4-1.4-1.4C41.8,4.3,41.2,4.9,41.1,5.7 M46,6.5l0,0.5H41c0,1,0.6,1.8,1.6,1.8c0.5,0,1.2-0.2,1.4-1h1.8
		c-0.3,1.5-1.4,2.5-3.2,2.5c-2.3,0-3.6-1.7-3.6-3.8c0-2.2,1.3-3.8,3.5-3.8C44.1,2.8,46,3.7,46,6.5 M38.2,5.6v4.6h-1.9V5.9
		c0-0.8-0.4-1.3-1-1.3c-0.7,0-1.2,0.4-1.2,1.4v4.1h-1.9V5.9c0-0.9-0.3-1.3-1-1.3c-0.7,0-1.3,0.4-1.3,1.4v4.1H28V3h1.7l0.1,1
		c0.4-0.8,1.2-1.2,2-1.2c0.9,0,1.6,0.4,1.9,1.1c0.4-0.8,1.4-1.1,2-1.1C37.2,2.8,38.2,3.8,38.2,5.6 M26.7,5.6v4.6h-1.9V5.9
		c0-0.8-0.4-1.3-1-1.3c-0.7,0-1.2,0.4-1.2,1.4v4.1h-1.9V5.9c0-0.9-0.3-1.3-1-1.3c-0.7,0-1.3,0.4-1.3,1.4v4.1h-1.9V3h1.7l0.1,1
		c0.4-0.8,1.2-1.2,2-1.2c0.9,0,1.6,0.4,1.9,1.1c0.4-0.8,1.4-1.1,2-1.1C25.7,2.8,26.7,3.8,26.7,5.6 M15.2,10.1h-1.9V3h1.9V10.1z
		 M15.3,2h-2.2V0h2.2V2z M85,17.3H88c0-0.9-0.6-1.4-1.4-1.4C85.7,15.9,85.1,16.5,85,17.3 M89.9,18.1l0,0.5H85c0,1,0.6,1.8,1.6,1.8
		c0.5,0,1.2-0.2,1.4-1h1.8c-0.3,1.5-1.4,2.5-3.2,2.5c-2.3,0-3.6-1.7-3.6-3.8c0-2.2,1.3-3.8,3.5-3.8C88.1,14.4,89.9,15.3,89.9,18.1
		 M80.3,18.2c0-1-0.4-2-1.7-2C77.6,16.2,77,17,77,18v0.4c0,1.1,0.8,1.7,1.7,1.7C79.8,20.2,80.3,19.1,80.3,18.2 M75.1,24.7V14.6h1.7
		l0.1,1.2c0.2-0.7,1.1-1.3,2.1-1.3c2.2,0,3.3,1.9,3.3,3.8c0,1.8-1.1,3.7-3.3,3.7c-1.1,0-1.8-0.6-2-1.2v3.9H75.1z M72.2,18.2
		c0-1-0.4-2-1.7-2c-1.1,0-1.7,0.9-1.7,1.8v0.4c0,1.1,0.8,1.7,1.7,1.7C71.7,20.2,72.2,19.1,72.2,18.2 M67,24.7V14.6h1.7l0.1,1.2
		c0.2-0.7,1.1-1.3,2.1-1.3c2.2,0,3.3,1.9,3.3,3.8c0,1.8-1.1,3.7-3.3,3.7c-1.1,0-1.8-0.6-2-1.2v3.9H67z M65.7,21.7H64l-0.2-1
		c-0.4,0.8-1.3,1.2-2,1.2c-1.5,0-2.5-1-2.5-2.7v-4.6h1.9V19c0,0.9,0.5,1.3,1.1,1.3c0.6,0,1.4-0.4,1.4-1.6v-4.1h1.9V21.7z M58.6,16.4
		c-1-0.1-2.1,0.1-2.1,1.6v3.7h-1.9v-7.2h1.7l0.1,1.3c0.2-1,1-1.5,2.2-1.4V16.4z M48.2,18c0,0.9,0.4,1.8,1.6,1.8
		c0.9,0,1.6-0.5,1.6-1.6v-0.3c0-1-0.5-1.7-1.6-1.7C48.5,16.2,48.2,17.1,48.2,18 M51.5,15.6l0.2-1.1h1.7l0,6.4c0,2.6-1.3,4-3.5,4
		c-2.4,0-3.6-1.5-3.5-3.1H48c0.1,1,0.8,1.4,1.7,1.4c1.1,0,1.7-0.7,1.7-2.3v-0.7c-0.1,0.5-0.7,1.2-1.9,1.2c-2.3,0-3.2-1.7-3.2-3.5
		c0-1.9,0.9-3.7,3.2-3.7C50.5,14.4,51.3,15,51.5,15.6 M38.8,14.6h1.7l0.1,1.2c0.3-0.9,1.3-1.4,2.2-1.4c1.7,0,2.5,1.1,2.5,2.8v4.5
		h-1.9v-4.3c0-0.9-0.4-1.3-1.1-1.3c-0.7,0-1.5,0.4-1.5,1.6v4.1h-1.9V14.6z M32.9,17.3h2.9c0-0.9-0.6-1.4-1.4-1.4
		C33.6,15.9,33,16.5,32.9,17.3 M37.8,18.1l0,0.5h-4.9c0,1,0.6,1.8,1.6,1.8c0.5,0,1.2-0.2,1.4-1h1.8c-0.3,1.5-1.4,2.5-3.2,2.5
		c-2.3,0-3.6-1.7-3.6-3.8c0-2.2,1.3-3.8,3.5-3.8C36,14.4,37.8,15.3,37.8,18.1 M30,21.7H28v-7.2H30V21.7z M30.1,13.6h-2.2v-2h2.2
		V13.6z M21.5,18.1c0,1,0.4,2,1.7,2c1.1,0,1.6-0.9,1.6-1.8v-0.4c0-1.1-0.8-1.7-1.6-1.7C22,16.1,21.5,17.2,21.5,18.1 M26.7,11.6v10.1
		H25l-0.1-1.2c-0.2,0.7-1.1,1.3-2.1,1.3c-2.2,0-3.3-1.9-3.3-3.8c0-1.8,1.1-3.7,3.3-3.7c1.1,0,1.8,0.6,2,1.2v-4H26.7z M13.9,17.3h2.9
		c0-0.9-0.6-1.4-1.4-1.4C14.6,15.9,13.9,16.5,13.9,17.3 M18.8,18.1l0,0.5h-4.9c0,1,0.6,1.8,1.6,1.8c0.5,0,1.2-0.2,1.4-1h1.8
		c-0.3,1.5-1.4,2.5-3.2,2.5c-2.3,0-3.6-1.7-3.6-3.8c0-2.2,1.3-3.8,3.5-3.8C16.9,14.4,18.8,15.3,18.8,18.1 M0.4,12.2h3.1l2.1,5.3
		l2.2-5.3h3.1v9.6h-2v-7.4l-2.2,5.2H4.5l-2.1-5.2v7.4h-2V12.2z"/>
</g>
</svg>
